<?xml version="1.0" standalone="no"?>
<!DOCTYPE svg PUBLIC "-//W3C//DTD SVG 20010904//EN"
 "http://www.w3.org/TR/2001/REC-SVG-20010904/DTD/svg10.dtd">
<svg version="1.0" xmlns="http://www.w3.org/2000/svg"
 width="229.000000pt" height="143.000000pt" viewBox="0 0 229.000000 143.000000"
 preserveAspectRatio="xMidYMid meet">
<metadata>
Created by potrace 1.10, written by Peter Selinger 2001-2011
</metadata>
<g transform="translate(0.000000,143.000000) scale(0.100000,-0.100000)"
fill="#000000" stroke="none">
<path d="M567 1423 c314 -2 832 -2 1150 0 318 1 61 2 -572 2 -632 0 -893 -1
-578 -2z"/>
<path d="M0 1390 c0 -11 -46 -11 1348 -15 802 -3 942 -1 942 11 0 12 -170 14
-1145 14 -757 0 -1145 -3 -1145 -10z"/>
<path d="M66 1109 l-26 -20 0 -353 c0 -430 -17 -391 169 -391 151 0 203 15
255 76 75 89 75 246 0 345 -26 33 -27 38 -15 67 42 104 34 170 -26 229 -48 47
-125 68 -244 68 -72 0 -91 -3 -113 -21z m302 -47 c79 -42 93 -136 35 -230
l-29 -47 30 -16 c46 -24 76 -89 76 -168 0 -174 -63 -221 -292 -221 l-118 0 0
356 0 356 128 -4 c108 -3 133 -7 170 -26z"/>
<path d="M143 1024 c-2 -5 -2 -56 -1 -112 l3 -103 91 -2 92 -3 21 43 c28 59
27 114 -3 149 -21 25 -31 28 -111 33 -58 4 -89 3 -92 -5z m165 -50 c25 -17 29
-58 11 -98 -14 -30 -31 -35 -89 -27 l-45 6 -3 54 c-2 29 -1 60 2 67 7 20 96
18 124 -2z"/>
<path d="M142 594 l3 -157 90 2 c140 3 175 33 175 151 0 120 -48 160 -190 160
l-81 0 3 -156z m204 82 c19 -22 24 -39 24 -85 0 -80 -18 -101 -95 -112 -91
-12 -95 -8 -95 115 0 56 3 106 8 110 4 4 36 6 71 4 54 -4 67 -8 87 -32z"/>
<path d="M790 1117 c-98 -28 -178 -106 -222 -216 -18 -47 -22 -76 -23 -176 0
-103 3 -129 23 -180 29 -74 62 -119 110 -149 179 -112 417 -38 494 153 20 49
23 74 23 196 0 133 -1 143 -28 201 -52 112 -139 171 -265 180 -38 2 -86 -2
-112 -9z m186 -42 c105 -31 163 -113 186 -259 21 -138 -12 -267 -91 -349 -62
-66 -103 -82 -206 -82 -78 0 -97 4 -141 27 -105 55 -150 163 -142 342 4 93 8
112 37 170 35 72 93 127 157 150 51 19 138 20 200 1z"/>
<path d="M782 1005 c-57 -30 -91 -71 -117 -144 -21 -59 -20 -213 1 -275 65
-191 322 -195 403 -6 31 71 38 188 17 270 -28 111 -91 168 -194 177 -48 4 -65
0 -110 -22z m178 -37 c34 -18 51 -35 70 -73 22 -44 25 -62 25 -155 -1 -95 -3
-110 -28 -158 -75 -143 -266 -134 -324 16 -39 103 -15 270 50 341 50 54 134
66 207 29z"/>
<path d="M1276 1099 l-27 -31 3 -340 3 -340 29 -25 c21 -18 35 -23 55 -18 51
13 56 25 59 174 l3 139 109 4 c122 3 150 17 150 70 0 52 -21 62 -144 68 l-111
5 0 90 0 90 121 5 c101 4 126 8 143 24 30 27 27 70 -5 95 -25 19 -40 21 -194
21 l-168 0 -26 -31z m380 -31 c-3 -13 -6 -26 -6 -30 0 -5 -65 -8 -145 -8
l-145 0 0 -135 0 -135 135 0 135 0 0 -30 0 -30 -135 0 -135 0 0 -160 0 -160
-35 0 -35 0 0 355 0 355 186 0 186 0 -6 -22z"/>
<path d="M1756 1109 l-26 -21 2 -355 3 -356 27 -20 c34 -26 73 -16 93 23 11
21 15 62 15 155 l0 125 130 0 130 0 0 -126 c0 -76 5 -134 12 -147 27 -51 72
-61 106 -24 22 23 22 28 22 374 l0 352 -26 20 c-35 28 -60 26 -89 -5 -23 -25
-25 -34 -27 -163 l-3 -136 -125 0 -125 0 -5 143 c-5 136 -6 145 -29 163 -30
24 -52 24 -85 -2z m74 -184 l0 -165 170 0 170 0 0 165 0 165 33 0 32 0 0 -355
0 -355 -32 0 -33 0 0 160 0 160 -170 0 -170 0 0 -160 0 -160 -32 0 -33 0 0
355 0 355 33 0 32 0 0 -165z"/>
</g>
</svg>
